<svg width="48" height="48" viewBox="0 0 48 48" fill="none" xmlns="http://www.w3.org/2000/svg"><path d="M24.02 47.96c-7.734 0-15.487 0-23.22.02-.6 0-.8-.12-.8-.76.02-15.494.02-31.006 0-46.5C0 .1.2 0 .76 0 16.246.02 31.713.02 47.2 0c.7 0 .8.2.8.84-.02 15.454-.02 30.906 0 46.36 0 .7-.2.8-.84.8-7.713-.06-15.426-.04-23.14-.04z" fill="#403432"/><path d="M33.332 25.942c.08.76-.52 1.02-1.019 1.18-.68.22-1.299.761-2.118.541-.24-.06-.46.22-.42.5.04.24-.02.44-.04.661-.38.04-.54-.3-.78-.38.68.62 1.18 1.42 1.66 2.262.579 1 1.258 1.941 2.438 2.422.04-.3-.26-.44-.2-.681.46.06 1.219.8 1.219 1.201 0 .14-.04.32-.16.3-.6-.12-1.2.24-1.779.02-1.459-.54-2.957-.86-4.396-1.501-1.998-.88-3.857-1.962-5.755-3.002-2.019-1.101-3.997-2.242-6.215-2.923-.58-.18-1.22-.2-1.819-.28-.14-.02-.32-.02-.38-.16-.08-.18.08-.28.2-.36.52-.32.82-.921 1.52-1.001.279-.04.359-.5.439-.741.28-.86.88-1.521 1.419-2.182.54-.66.939-1.3.799-2.162-.08-.56.34-1.3-.16-1.701-.76-.6-.959-1.521-1.199-2.262-.38-1.16-1.419-2.242-.92-3.603.26-.72.46-1.361.4-2.182-.04-.66.48-1.38.88-2.001.1-.16-.1-.701.44-.54.08.1.18.18.22.32.02.1.02.2 0 .3-.04.16-.08.32-.18.46-.02.04-.06.08-.08.12-.06.14-.3.22-.12.42.02.02.22.24.12-.06-.02-.08.04-.18.08-.28.02-.06.06-.12.12-.18.22-.12.479-.1.719-.12.7-.06.74-.02.48.64-.22.58.36.741.539 1.101.28.5.8.08 1.159.32.24.16.28.401.3.661-.54.32-.44.7-.12 1.121.12.16.2.34.16.54-.02.06-.04.14-.08.2-.32.1-.68.16-.56.641-.14.1-.3.16-.48.18-.06 0-.14 0-.2-.04-.239-.1-.299-.42-.559-.46-.16-.04-.32-.02-.48 0-.08 0-.14-.02-.22-.02-.159 0-.219-.38-.399-.16-.2.24.06.32.22.42.3.2.48.44.16.78-.06.04-.12.06-.18.08-.1.021-.2 0-.28-.04-.04 0-.06-.02-.1-.06-.02.1.08.04.1.08.18.101.36.141.56.141.24.04.52-.02.64.3-.18.24-.44.06-.58.1-.16-.02-.04.16-.06.06-.02-.02.02-.04.06-.04.32.04.32.04.3.32-.08.12-.2.24-.04.361.06.04.14 0 .2 0-.06-.1-.24-.1-.26-.26.12-.2.38-.2.5-.4.099-.12.139-.26.199-.4a.62.62 0 0 1 .18-.221c.04-.04.1-.08.14-.12.12-.1.26-.22.44-.18.24.08.3.58.679.28.2.02.32.12.4.3.08.24 0 .48 0 .72 0 .06 0 .14-.02.2-.08.461.04.862.34 1.202.938.76 1.838 1.581 3.157 1.541.06.04.1.1.14.16.08.18.16.38.06.56-.1.16-.28.301-.08.521.2.2.44.22.679.16.32-.1.56-.3.84-.46.898-.54 1.438-.36 1.858.62-.02.1-.08.22-.18.2-1.04-.28-1.819.441-2.718.721-.06.04-.2.06-.2.08.02.1.14.06.2.12.46.26.98.16 1.539.2-.36-.26-.4-.52-.1-.76.3-.24.82-.12 1.059.22.3.46.12.84-.62 1.361.32.2.68.32 1.06.38.3.04.6.14.6.541-.02.1-.12.14-.16.24.08-.02.12-.06.18-.12.199-.26.119-.58.259-.84.06-.1.14-.16.26-.16.64.46.62 1.2-.02 1.62-.24.14-.5.22-.78.28-.22.04-.38.181-.36.401.04.26.26.26.46.26.3-.02.58-.12.88-.1.3.02.639.04.719.4.08.341-.2.481-.46.601-.22.1-.42.24-.76.32.4.18.6.42.54.821-.02.06-.04.14-.08.2.04.02.06 0 .1-.06a.46.46 0 0 0 .04-.36c-.04-.22-.26-.52-.04-.62.28-.12.42-.44.74-.461.32-.02.64.02.62.44-.02.28 0 .5.3.6.319.481.758.221 1.158.141.12-.02.18-.14.26-.22.1-.12.18-.24.26-.38.04-.06.1-.08.16-.1.14-.02.24.04.34.14-.02-.02 0 .02.02.04z" fill="#201A16"/><path d="M19.104 10.188c-.26-.18-.32-.58-.74-.56-.24 0-.14-.2-.04-.32.2-.26.16-.64.54-.84-.5.08-.959.06-1.399.08-.04-.04-.06-.08-.04-.121 0-.04 0-.06.02-.06.08-.14.2-.26.34-.34.2-.22.6-.26.62-.68-.04-.241-.22-.181-.38-.201-.16-.04-.3-.3-.08-.34.58-.1.52-.841 1.06-.941 1.098-.82 2.117-1.682 3.656-1.722 1.02-.02 1.998.04 3.018.1.28.02.48.08.62.34.04.1.059.201.079.301.04.14-.04.32.12.44.18-.1.02-.32.18-.42.06-.02.14-.04.22-.04.38.06.759.04 1.099.24.08.06.18.12.26.18.28.24.1.4-.06.58a.788.788 0 0 0-.16.201c0 .18.16.3.16.48-.02.04-.02.1.02.14a.53.53 0 0 0 .12-.1c.839-.5 1.298-.4 2.198.44.44.781.34 1.062-.38 1.282-.22-.26-.1-.7-.48-.86a.11.11 0 0 1-.1-.06c-.02.1.1.02.12.08.16.18.38.32.3.6-.06.2.06.26.22.28.4.22.5.66.74 1 .12.321.04.681.18 1.002.139.32.179.66.359.98.16.28.16.641-.08.901-.24.28-.54.14-.84.06-.519-.14-1.019-.46-1.578-.14-.22.04-.38.18-.68.38.28-.16.42-.32.62-.34.16-.06.3-.18.5-.14.2.02.3.16.36.34.04.18-.04.28-.18.36-.24.14-.48.26-.7.421-.4.22-.8.3-1.16-.04-.359-.34-.279-.78-.08-1.161.2-.4.16-.88.4-1.261.02-.04.08-.08.06-.1-.04-.1-.14-.02-.2-.02-.339-.18-.599.1-.898.14-.34-.08-.34.32-.56.4-.22.3-.44.42-.62-.04-.12-.34-.38-.64-.34-1.04.02-.401-.22 0-.319-.06-.12 0-.2-.06-.26-.16a.412.412 0 0 1 0-.221c.12-.32.48-.42.64-.68.1-.16.48-.38-.1-.42-.16-.02-.34-.161-.5-.361.18.34.7.38.52.86-.18.14-.48.16-.56.42-.04.04-.08.08-.14.1-.2-.02-.16.201-.26.281-.24.16-.36.44-.559.64-.22.16-.48.22-.62.521a.49.49 0 0 1-.639.26c-.32-.14-.38.14-.54.24-.02.04-.1-.08-.12.02 0 .1-.04-.04.06 0 .06.02.08.06.08.12-.04.22.18.381.16.601-.36.68-1.159.92-1.698.5-.1-.2-.06-.48-.34-.6-.68-.26.14-.72-.12-1.04.16-.12.2.18.34.12.02 0 .04-.02.06-.02.02-.02 0-.04 0-.08.04-.661-.28-1.122-.74-1.582-.08.26-.28.42-.42.6-.14.06-.219.12-.339.08z" fill="#FEFEFE"/><path d="M19.883 42.776c1-1.382 1.979-2.723 2.958-4.064l.18.06v5.185h-.96c.32-1.101.06-2.222-.02-3.423-.779 1.14-1.578 2.282-2.397 3.483-.76-1.161-1.48-2.262-2.198-3.363-.06 1.12-.28 2.222.04 3.323-.26.08-.52.1-.76 0 .24-1.762.04-3.523.16-5.445a191.719 191.719 0 0 1 2.997 4.244z" fill="#FCFCFC"/><path d="M27.597 38.372c1.719.02 2.957 1.241 2.938 2.882-.02 1.642-1.36 2.883-3.078 2.863-1.778-.02-2.997-1.221-2.977-2.923.02-1.641 1.358-2.842 3.117-2.822z" fill="#FCFBFC"/><path d="M32.113 13.651l1.2 2.282c.239.24.239.52 0 .72-.26.221-.5.04-.72-.14-.08-.06-.12-.16-.2-.22-.2-.18-.18-.66-.62-.48-.44.16-.879.32-.939.92-.06.681-.2.721-.859.441-.34-.48-.74-.84-1.299-1.04-.28-.1-.52-.26-.68-.541-.12-.34-.12-.72-.26-1.06 0-.081.04-.141.1-.201.22-.12.44-.12.68-.1.28.06.56.14.84.12.16-.12.56.2.5-.28.02-.1.06-.18.099-.28.1-.22.04-.641.4-.561.34.06.34.42.3.74 0 .04-.02.1-.02.14-.02.08-.04.14-.1.2.04 0 .08-.02.08-.08.14-.32.24-.64.679-.38.02.02.04.06.06.1.04-.1-.06-.14-.08-.2-.2-.36-.58-.82-.04-1.08.44-.22.62.34.84.66.04.06.04.18.04.32z" fill="#FDFDFD"/><path d="M37.09 38.712c-.34.941-.12 1.922-.14 2.883-.02 1.841-.78 2.602-2.599 2.522-1.438-.06-2.178-.821-2.218-2.262-.02-.74 0-1.501 0-2.242 0-.38.02-.74-.24-1.08h1.2c-.3 1.38-.3 2.741-.04 4.082.14.761.719 1.081 1.638 1.101.88.02 1.479-.28 1.619-1 .26-1.322.28-2.663 0-3.984.26-.4.52-.4.78-.02z" fill="#FCFCFC"/><path d="M15.887 43.937c-.7.26-1.14.02-1.28-.721-.1-.62-.479-.8-1.058-.72-.2.02-.4.02-.6 0-.78-.12-1.279.12-1.399.96-.08.56-.46.64-.979.48 1.1-1.82 1.799-3.803 2.638-5.864.96 1.981 1.659 3.983 2.678 5.865z" fill="#FBFBFB"/><path d="M41.725 39.593c-.34-.52-.78-.82-1.419-.8-.34 0-.659.08-.799.44s-.08.72.22.96c.34.28.74.521 1.099.781.32.24.66.46.96.72.439.381.559.901.379 1.422-.18.52-.56.88-1.12.98-.419.08-.839.06-1.258.02-.96-.12-1.04-.24-.94-1.3.46.56.92 1.04 1.68 1 .419-.02.779-.1.958-.56.16-.44.02-.8-.32-1.06-.539-.421-1.098-.782-1.638-1.182-.56-.4-.96-.9-.7-1.641.26-.74.88-.981 1.6-.961.519 0 1.038.08 1.458.46.04.24.24.54-.16.721z" fill="#FBFAFA"/><path d="M30.055 17.054c.3.22.68.44.64-.2-.06-.66.18-1 .799-1.1.28-.04.38-.301.58-.421.18.32.319.64.519.92.14.22.36.5.66.34.299-.14.1-.44.1-.68.419.1.399.1.519.76.06.361-.16.501-.38.521-.48.04-.46.32-.34.62.1.241.06.341-.1.541-.36.42.08.961-.12 1.442.12.12.12.24.08.4-.46.24-.619-.26-.939-.36-.14-.04-.3.08-.42-.08-.04-.06-.04-.12-.06-.18-.04-.321.18-.501.36-.681-.02 0-.02-.02-.04-.02-.38.2-.26.66-.46.96-.639-.04-.399-.54-.459-.88-.04-.34-.04-.66.38-.78.32-.08.6-.221.92-.321-.8-.44-1.22-.3-1.62.5-.06.14-.1.28-.28.3-.539-.48-.359-1.06-.339-1.6z" fill="#221E1B"/><path d="M31.254 13.932c-.3-.14-.3-.14-.62.46-.14.02-.22 0-.16-.18 0-.34.14-.7-.24-1.001.04.42-.16.72-.339 1.04-.12.04-.2-.04-.24-.12-.1-.24-.08-.52-.22-.74-.02-.08-.02-.16.04-.22-.04-.16-.1.02-.14 0-.12.08-.22.12-.36.08a.363.363 0 0 1-.199-.22c.16-.12.34-.2.46-.34.12-.12.46.04.36-.3-.08-.321-.3-.14-.48-.14-.1 0-.2.02-.28.04-.06-.02-.08-.06-.06-.1.02-.04.04-.06.06-.06.6-.441 1.219-.261 1.819 0 .2.08.38.26.599.06.22-.201.14-.461.06-.701-.12-.36-.42-.681-.4-1.101-.16-.34.08-.761-.16-1.101-.42-.14-.38-.66-.719-.861a.189.189 0 0 1 .02-.26c.84-.2.42-.68.26-1.101-.08-.12-.08-.22 0-.32.52.12.6.52.6.96 0 1.261.279 2.442.779 3.583.12.28.02.56.06.841.06.4.22.52.52.72.459.3 0 .561-.18.801-.16-.24-.32-.48-.5-.7-.1-.14-.2-.34-.4-.24-.22.12-.14.34-.06.52l.24.54c.08.16 0 .18-.12.16z" fill="#231E1B"/><path d="M7.654 43.977h-1.06c.12-1.822.16-3.623-.04-5.505 1 0 2.039.02 3.078 0 .54-.02.34.36.44.7-.74-.26-1.44-.3-2.119-.3-.36 0-.6.08-.54.5.06.501-.259 1.302.16 1.462.6.24 1.36.24 2.039-.04.06-.02.12-.08.24-.14v.86c-.66-.32-1.34-.22-2.019-.24-.2 0-.44 0-.42.28.08.781-.14 1.582.24 2.423z" fill="#FAFAFA"/><path d="M27.937 5.064c-.4 0-.84.16-1.22-.12-.2-.12-.499-.02-.579-.32-.08-.2-.26-.2-.44-.22-.779-.06-1.578-.26-2.338-.14-1.059.16-2.258-.06-3.137.9-.32.34-.86.46-1.299.7-.3-.26 0-.4.14-.52 1.319-1.16 2.898-1.841 4.616-1.62 1.12.14 2.398.02 3.378.86.16.14.42.2.699.16.32-.06.26.16.18.32z" fill="#221D1B"/><path d="M32.833 32.427c.16.3.54.44.62.82-.44.18-.78-.04-1.1-.26-.76-.54-1.399-1.24-1.819-2.061-.519-1.001-1.178-1.842-1.958-2.622-.1-.1-.24-.18-.18-.44.54.18.9.6 1.32.94l1.318 1.681c.68.6 1.24 1.282 1.799 1.942z" fill="#F9F9F8"/><path d="M10.152 33.468h.699c-.04.5-.42 1.2.06 1.421.54.24 1.339.24 1.898 0 .38-.16.16-.88.06-1.381.2-.12.44-.08.7-.02-.2 1.02-.12 2.022-.08 3.022 0 .2.18.44-.24.44-.36 0-.3-.16-.28-.4.04-1.28.04-1.28-1.199-1.28-1.119 0-1.099 0-1.019 1.18.02.18.3.5-.2.52-.54.02-.26-.32-.28-.54-.06-.98.08-1.941-.12-2.962z" fill="#FBFBFB"/><path d="M5.815 34.148c-.16-.52-.1-.78.5-.74.8.04 1.598.04 2.398 0 .56-.04.66.18.52.66-.2.1-.24-.12-.34-.2-.3-.2-.66-.32-.98-.16-.32.14-.14.5-.14.74.02.801-.12 1.622.12 2.423-.56.2-.719.06-.62-.54.1-.641.02-1.302.02-1.942 0-.781-.359-.981-1.058-.58-.18.1-.28.22-.42.34z" fill="#F7F7F7"/><path d="M15.507 35.25c-.02 1.62.22 1.8 1.739 1.2.06.18.04.44-.12.44-.7.04-1.38.04-2.079.02-.22-.02-.06-.22-.06-.36 0-.84.02-1.701.02-2.542 0-.18-.06-.34-.12-.6h1.919c.2 0 .36.02.32.28-.06.28-.24.06-.34.04-1.339-.18-1.339-.18-1.299 1.181.1.12.1.24.02.34z" fill="#F8F8F8"/><path d="M34.231 21.738c.44.18.08.46.08.7-.04.821.3 1.662-.24 2.463-.16.24-.4.8-.739 1.06a.674.674 0 0 1-.16-.54c.02-.08.04-.14.06-.22.2-.3.46-.58.52-.96.02-.16.12-.421-.04-.481-.78-.3-.38-.6-.08-1.001.22-.3-.02-.78.18-1.141.3-.42.32-.04.42.12z" fill="#211D1B"/><path d="M30.335 6.726v.32c-.34-.16-.56-.72-1.08-.32-.18-.841-.539-.1-.819-.1-.06 0-.12.06-.2.1-.16.06-.18-.02-.16-.16.02-.22-.18-.26-.32-.36-.139-.1-.219-.201.02-.301.04-.02.1-.02.14-.02h.22c-.06-.04-.14-.02-.16-.1.12-.16.32-.3.2-.56.38-.26.36.24.62.3.42.12.72.52 1.199.6.32.08.34.36.34.6z" fill="#24201D"/><path d="M32.833 32.427c-.74-.52-1.28-1.201-1.779-1.942.1-.16.2-.22.32-.04.42.64.96 1.141 1.579 1.602.28.22-.14.24-.12.38z" fill="#201A16"/><path d="M34.231 21.738c-.12.02-.14-.36-.32-.1-.699-.2-.858-.8-1.038-1.381v-.48h.08c.34.16 1.238 1.54 1.278 1.961z" fill="#221E1D"/><path d="M18.385 7.346l.28.34c.06.3-.8-.32-.42.42.08.14-.3-.06-.46 0-.06-.02-.1-.08-.12-.14.08-.22-.12-.22-.24-.3-.18-.06-.14-.18-.12-.3.38-.12.72.4 1.08-.02z" fill="#FDFCFA"/><path d="M15.507 35.249v-.32c.44.08.92-.08 1.339.16.04.06.04.12 0 .18-.44-.02-.9-.02-1.339-.02z" fill="#E0DDDE"/><path d="M37.09 38.712c-.26-.26-.52-.24-.78 0-.1-.06-.26-.2-.14-.24.34-.12.72-.12 1.059 0 .12.04-.02.18-.14.24z" fill="#878485"/><path d="M16.846 35.25v-.18c0-.12-.04-.281.12-.301.3-.02.16.24.16.36 0 .24-.08.36-.28.12z" fill="#7B7779"/><path d="M41.725 39.593c.28-.2.08-.52.16-.76.24.26.18.58.1.84-.08.24-.22.08-.26-.08z" fill="#7D797A"/><path d="M32.873 20.257c.42.4.5 1.06 1.039 1.381.04.28-.08.54 0 .84.14.501-.26.681-.72.801.32.2.8 0 .82.36.04.601-.1 1.202-.7 1.542-.06.04-.12.04-.18-.02a.404.404 0 0 1-.06-.22c.02-.82-.22-1.482-1.019-1.662.36.22.94.42.76 1.141-.1.4-.36.74-.84.74-.42 0-.759-.16-.839-.58.16.56.58.661 1.12.58.339-.06.659-.14.419.401-.2.28-.5.38-.82.42-.24.02-.5.04-.599.32-.04.06-.1.101-.16.141-.3-.12-.78-.08-.46-.64.1-.16.12-.44-.08-.4-.2.04-.619-.261-.639.22-.02.64-.26.14-.46.1-.04.38.58.78 0 1.14-.16.02-.22-.02-.18-.18.26-.84-.779-.6-.959-1.18.54.2.94 0 1.32-.281.12-.1.399-.04.339-.3s-.28-.36-.52-.32c-.34.04-.679.14-1.019.16-.32.04-.76.08-.72-.36.04-.3.04-.881.74-.761.38.08.82-.14.98-.54.14-.361.12-.781-.26-1.062-.16-.06-.28-.08-.16.16.04.34.16.721-.26.921-.18.06-.24-.04-.2-.2.02-.28-.14-.44-.4-.4-.659.1-1.059-.44-1.758-.56.54-.341 1.319-.22 1.179-1.022-.04-.28-.22-.5-.54-.54-.32-.04-.52.08-.56.46.22-.1.44-.26.58.04.1.24-.12.3-.28.34-.639.16-1.258.22-1.838-.22-.06-.14.02-.2.12-.22.18 0 .34-.02.52 0-.14-.02-.26 0-.4-.02-.02-.02-.06-.04-.08-.06.06-.08-.1-.26.12-.28.44-.02.82-.24 1.159-.48.5-.38 1.06-.08 1.579-.14-.08-.24.1-.32.26-.42.559-.161 1.099-.301 1.378.44.14 1.04.14 1.04 1.42 1.22.1.02.02-.14.04-.04-.78 0-1.34-.24-1.42-1.14 0-.08.02-.14.04-.22.08-.14.2-.22.36-.22.22.06.34.26.46.4-.1-.4-.48-.761-.12-1.221.26-.3.04-.761.58-1.021.499-.24 1.338-.36 1.658.12.1.14.18.44-.08.32-.42-.18-.58.14-.86.24-.18.08-.619-.1-.519.18.16.44-.36 1.001.26 1.301.06-.08.1-.22.26-.14l.06.12c.3.08.14-.22.24-.28.3.28.599.54.899.8z" fill="#FDFDFC"/><path d="M27.157 27.883c.04-.18-.02-.44.22-.5.14-.04.22.16.3.28 1 1.421 1.998 2.842 2.778 4.424.1.22.34.46.12.68-.18.18-.42-.04-.62-.12-.6-.22-1.199-.48-1.798-.72-.76-.32-1.4-.801-1.739-1.562-.74-1.581-1.838-2.902-2.957-4.183-.56-.64-1.08-1.321-1.36-2.122-.08-.22-.2-.46-.1-.72.1-.24.24-.461.5-.501.3-.04.44.18.52.44.2.701.38 1.381.58 2.082.419-.1.16-.4.16-.6-.02-.24-.04-.5-.08-.741-.08-.66-.28-1.361.679-1.541.12-.02.2-.2.32-.34.599.88 1.218 1.74 1.778 2.622.24.38.42.78.92.92.399.1.08.44.299.741-.9-.52-.84.08-.9.56-.04.38.06.741.12 1.101.22.12.2-.14.26-.2zm-5.135.08c-.68-.88-1.28-1.761-2.278-2.262-.44-.22-1-.68-.88-1.02.28-.761-.38-.921-.62-1.362a2.158 2.158 0 0 1-.259-1.16c.04-.521.26-.861.88-.721-.48.94-.42 1.381.639 2.002 2.598 1.52 3.896 4.143 5.695 6.365.02.04 0 .1.02.18-.3.12-.56-.04-.84-.12-1.078-.38-2.078-.94-3.077-1.521-1.798-1.021-3.637-1.962-5.675-2.783.76-.16.7-.9 1.139-1.26.48-.401.68-.401.8.2.12.64.479.98.998 1.32.92.601 1.799 1.261 2.698 1.882.18.16.36.42.76.26z" fill="#FDFDFD"/><path d="M21.942 11.35c.48.16.08-.4.3-.38.24.02.46.22.719.14.1-.02.26-.1.26-.12-.08-.581.44-.481.719-.641.14-.02.18.08.18.2-.48.92-1.2 1.681-1.679 2.542.24-.18.36-.74.9-.52.04.46-.22.9-.1 1.38.06.2.12.381.34.441.28.08.359-.08.379-.32.04-.1.1-.18.2-.22-.04.1.04-.1.08-.02.02.04.12-.04.08-.06-.22-.2-.64-.22-.62-.641.04-.12.12-.18.24-.18.44.14.92.16 1.279.48.12.14.24.3.2.46-.2.921.02 1.782.44 2.603-.06.36-.34.34-.6.4-.44.02-.72.3-.98.6-.279.32-.559.32-.919.16-.48-.22-.919-.5-1.298-.84-.32-.3-.42-.64-.28-1.08.3-.902.28-.902-.7-.962-.04 0-.1-.04-.14-.06a.56.56 0 0 0-.3-.34c-.06-.02-.08-.06-.1-.12 0-.1.06-.2.04-.32-.12-.08-.299-.1-.339-.28.08-.26.08-.561.36-.741 0-.08.02-.14.02-.22.32.12.66.4.84-.22.02-.08.639.06.778-.38.1-.221-.14-.361-.16-.541l-.12-.06c-.04-.04-.06-.08-.04-.1 0-.02.02-.04.02-.04z" fill="#201B17"/><path d="M20.903 14.732c.2.06.32-.08.5-.14.239-.08.499-.1.699.1.2.22.14.46.04.7-.42 1.002-.4 1.062.46 1.662.04.02.08.06.12.08 1.018.68 1.098.68 1.877-.24.2-.22.4-.3.64-.12.16.16.16.36.18.54.02.14.1.22.22.28.2.14.4.26.48.521.02.1.04.22.04.32-.02.18-.04.36-.22.46-.58-.02-.98-.42-1.46-.66-.28.18-.639.28-.919.12-.839-.46-1.738-.82-2.378-1.581-.06-.1-.1-.2-.12-.32-.02-.22-.06-.44-.04-.66-.02-.181.14-.421-.12-.541-.24-.16.1-.34 0-.52z" fill="#FBFBFA"/><path d="M25.998 18.135c-.16-.16-.3-.32-.46-.48-.12-.14-.12-.3-.02-.46.52-.1 1 .2 1.52.18.24.08.5.06.739.14.52.14 1.019.34 1.159.92.14.58-.38.741-.7 1.021-.1.1-.2.2-.3.32-.579-.92-1.018-1-1.918-.32-.44.32-.879.56-1.439.28a.689.689 0 0 1-.4-.6c-.02-.32.1-.24.34-.22.18 0-.1-.3-.02-.46.24-.28.38 0 .52.1.24.18.54.16.8.3.18-.1.16-.3.16-.46.06-.04.12-.08.16-.12.06-.04.16 0 .2-.1-.06.04-.14.04-.2.04-.04.02-.1-.02-.14-.08z" fill="#F9F9F8"/><path d="M19.544 14.392c-.06.02-.1.04-.16.06-.16.02-.3.1-.46.06-.28-.1-.64 0-.879-.26.28-.42-.02-.56-.34-.66-.24-.08-.34-.18-.28-.461.06-.28.24-.48.46-.5.3-.02.16.26.18.44.04.24.16-.08.24 0 .2.16.24.48.52.6.06.04.12.06.16.12.179.18.599.2.559.601z" fill="#EDECEB"/><path d="M20.743 18.616c-.42-.06-.86-.04-1.04-.52.24-.321.94.26.96-.501.32.04.6.2.78.46.319.48-.38.26-.38.52-.12.1-.22.1-.32.04z" fill="#EFEEED"/><path d="M18.764 10.709c.48-.04.4.72.9.72 0 .02-.02.06-.02.06-.14.14-.22.441-.5.3-.36-.16-.84-.18-.88-.68-.04-.12.1-.48.5-.4z" fill="#EEEDEC"/><path d="M19.284 9.968c-.04-.22.72-.18.16-.58-.1-.08.1-.1.18-.14.14-.06.28-.1.38.06.3.54.899 1 .559 1.741-.2-.14 0-.48-.26-.6-.36-.14-.84-.02-1.02-.48z" fill="#34312E"/><path d="M31.074 26.442c.02-.08.02-.16.04-.24.18-.08.34-.2.52-.28.6-.2.859.08.779.76-.6-.46-.54.5-1.02.42.02-.26-.02-.54-.319-.66z" fill="#F1F1F0"/><path d="M20.603 14.232c0 .06.02.1.02.16-.24.02-.14.52-.4.38-.18-.12-.24-.46-.34-.7-.22-.06-.52-.06-.34-.44.16-.04.3-.1.46-.14.08.08.22.02.28.14.14.26.62-.18.64.32-.12.1-.42-.04-.32.28z" fill="#D9D8D6"/><path d="M32.413 26.682c.1-.32 0-.54-.3-.66-.26-.12-.46-.08-.6.22-.14.3-.279-.02-.399-.04.04-.4.34-.48.66-.44.34.04.579-.1.819-.26.1.02.16.08.22.16 0 .06 0 .12-.02.18-.04.12-.06.24-.16.32-.04.2 0 .4-.22.52z" fill="#393633"/><path d="M21.043 18.716c.38.22.3.5.1.78-.14.2-.42.2-.6.12-.26-.08-.3-.36-.26-.62.04-.16.18-.12.3-.12.24.2.3-.1.46-.16z" fill="#EFEEED"/><path d="M20.263 13.631c-.1-.04-.18-.1-.28-.14-.12-.2-.5-.3-.32-.64.2-.34.4.04.6.02.1-.02.2.02.28.04.12.34-.1.52-.28.72z" fill="#BEBCBA"/><path d="M18.485 15.293c.22.3.64-.02.879.28-.18.28-.5.14-.72.26-.22.12-.5.06-.58-.16-.099-.3.24-.28.42-.38z" fill="#CDCBC9"/><path d="M17.445 8.467v.08c.02.22.32.52-.08.64-.18.06-.519.02-.579-.2-.1-.38.32-.42.52-.58.1-.08.14-.06.14.06z" fill="#EBEBE9"/><path d="M19.284 9.968c.38.06.7.26 1 .5-.24.12-.52-.02-.78.12-.3.141-.44-.1-.4-.4.06-.08.12-.14.18-.22z" fill="#E9E4E0"/><path d="M18.784 13.771c-.54 0-.36-.44-.44-.72.22 0 .44.02.66.02.1.28.14.56-.22.7z" fill="#3F3B38"/><path d="M19.544 13.631c-.12.34.22.28.34.44-.12.1-.22.22-.34.321-.14-.26-.6-.2-.62-.6.12-.22.3-.28.52-.14.04-.04.06-.04.1-.02z" fill="#3B3835"/><path d="M25.838 18.876c-.54.18-.859-.34-1.318-.4 0-.08-.02-.14-.02-.22.54-.04.919.36 1.338.62z" fill="#2C2722"/><path d="M20.143 15.653c0 .68-.48.94-.8 1.301.04-.52.36-.88.8-1.3z" fill="#E2E0E0"/><path d="M19.304 12.35c.04.18-.04.22-.22.22-.2-.02-.32-.04-.28-.28.02-.12-.02-.32.22-.26.16.02.34.08.28.32z" fill="#F9F7F5"/><path d="M18.485 15.293c.14-.48-.38-.2-.5-.46h.78c.04-.06.1-.06.16-.06.08.04.14.12.16.22 0 .5-.44.12-.6.3z" fill="#DFDDDA"/><path d="M21.162 16.434c0 .12.02.26.02.38-.48-.64-.52-.76-.3-1.341.08.06.12.14.14.24.04.24.06.48.14.72z" fill="#F4F2EF"/><path d="M32.713 25.782v-.16c0-.28.14-.441.42-.461h.18v.12c-.14.16.06.48-.28.54a.37.37 0 0 0-.14-.04c-.06.06-.12.06-.18 0z" fill="#E5E4E2"/><path d="M19.923 18.936c-.16.06-.22.1-.28.1-.16 0-.34-.02-.699-.06.42-.28.66-.3.98-.04z" fill="#DEDEDE"/><path d="M19.464 13.631c-.18.02-.38.02-.52.14-.06 0-.1-.02-.16-.02.22-.18.16-.46.22-.7.14.2.3.4.46.58z" fill="#C1BEBC"/><path d="M20.923 15.733c-.02-.08-.02-.18-.04-.26v-.18c.1-.04.28-.14.32-.1.18.18-.04.36-.04.54-.08.08-.16.08-.24 0z" fill="#4B4948"/><path d="M23.76 24.72c.16.2.12.461.12.701 0 .1.04.28-.16.22-.12-.04-.16-.16-.14-.3.3-.14.06-.42.18-.62z" fill="#959493"/><path d="M28.516 22.92l.2.199c-.02.04-.06.08-.08.1-.18.1-.36.18-.54 0-.04-.04-.12-.14-.1-.18.14-.2.36-.04.52-.12z" fill="#E4E3E1"/><path d="M17.445 8.467c-.04-.02-.1-.04-.14-.06-.02-.18-.08-.36.1-.5.12-.06.22-.06.32.04.02.06.04.1.06.16.02.22-.18.28-.34.36z" fill="#94918F"/><path d="M21.043 18.716c-.04.18-.04.42-.3.44-.18.02-.12-.18-.16-.28.12-.06.16-.16.16-.28.1 0 .2-.02.3-.02v.14z" fill="#262522"/><path d="M18.944 14.832h-.18c-.18-.3-.5-.04-.719-.16-.04-.14.04-.2.14-.26.08-.02.14-.02.22-.04.22-.02.44.02.66.1.139.2.02.28-.12.36z" fill="#FAF9F6"/><path d="M18.225 14.512c-.06.06-.12.1-.16.16-.22.02-.36-.1-.5-.24a.28.28 0 0 1 .04-.28c.08.04.18.06.26.1.12.1.38 0 .36.26z" fill="#CBC9C7"/><path d="M18.225 14.512c-.12-.08-.24-.18-.36-.26.06 0 .12-.02.2-.02.28.1.64-.12.9.16-.18.16-.42 0-.6.12l-.06.02-.08-.02z" fill="#33302E"/><path d="M25.14 20.817c-.06.06-.14.12-.2.2-.24-.1-.4-.26-.42-.58.22.1.4.18.58.26v-.02c.02.04.04.08.04.14z" fill="#DDDAD8"/><path d="M17.605 14.152c-.02.1-.02.18-.04.28-.18-.04-.38-.04-.54-.26.2-.12.38-.12.58-.02z" fill="#989593"/><path d="M28.976 22.178c-.16-.12-.4-.14-.48-.4.3-.08.48.04.64.24a.61.61 0 0 1-.16.16z" fill="#43413F"/><path d="M18.345 14.512c.16-.18.4-.1.6-.12l.439.06c-.04.04-.1.06-.14.1-.04.08-.1.08-.16.02-.24-.04-.48-.04-.74-.06z" fill="#2C2927"/><path d="M29.276 26.662l.18.18c-.08.16-.2.44-.4.22-.18-.16.08-.28.22-.4z" fill="#FCFAF7"/><path d="M32.713 25.782h.18c-.08.14.16.52-.28.36 0-.1-.08-.26.1-.36z" fill="#B8B5B1"/><path d="M27.157 27.883v.56c-.22-.1-.28-.24-.26-.42.1-.04.18-.1.26-.14z" fill="#646363"/><path d="M20.583 19.896c-.26.06-.5.18-.64-.16.28-.2.44.02.64.16z" fill="#EDEBEB"/><path d="M18.445 12.33c-.02.1-.12.12-.22.08-.12-.04-.22-.12-.2-.28.02-.14.1-.14.2-.08.1.06.24.1.22.28z" fill="#D6D3D0"/><path d="M33.032 25.841c.34-.06.02-.44.28-.54v.62c-.08-.02-.18-.04-.28-.08z" fill="#231F20"/><path d="M19.084 14.552c.06 0 .1-.02.16-.02 0 .16.02.34-.16.46-.04-.06-.1-.1-.14-.16.06-.1.1-.18.14-.28z" fill="#EEECEA"/><path d="M17.725 7.926c-.1-.02-.22-.02-.32-.04 0-.08.02-.16.02-.24.16.06.54-.18.3.28z" fill="#656361"/><path d="M17.346 11.71c-.06.1-.12.2-.14.18-.12-.02-.24-.08-.22-.24 0-.06.04-.12.08-.18.08.1.18.16.28.24z" fill="#B9B5B3"/><path d="M28.776 13.01c.06.06.14.1.2.161.12.14-.06.32.06.44.08.14.12.28.2.4.08.16.28.28.16.501-.32.04-.62.06-.88-.16-.12-.06-.32-.02-.34-.18-.04-.22-.12 0-.16-.02-.24.04-.539-.1-.659.26-.02.08 0 .18.08.2.62.16.52.56.38 1.001-.06.04-.12.06-.18.06-.22-.04-.36-.22-.5-.4 0 .24-.02.46-.16.64-.12.12-.26.2-.4.28-.179.08-.279.3-.479.34-.12-.02-.18-.1-.22-.2-.16-.4-.48-.78-.12-1.22.18-.26.5-.38.68-.721-.18.16-.34.32-.56.2-.16-.3-.08-.66-.22-.96-.06-.24-.3-.34-.4-.561-.079-.2-.139-.4 0-.64.38-.661.16-1.462-.499-1.922-.1-.34.1-.48.38-.58.12-.14.22-.321.36-.421.1-.06.34-.1.32.12-.04.3-.36.58-.12.9.2.261.38.521.24.881.38-.06.22-.36.36-.48.179-.14.639.1.579-.38.12.06.3.08.34 0 .2-.68.459-.1.699-.06.18-.06.36-.12.36.2-.2.6-.42 1.2-.6 1.801-.06.2-.06.42.18.58.3.221.6.08.919-.06z" fill="#211C18"/><path d="M25.12 9.908c-.12.22-.24.44-.36.68-.16.641-.72 1.042-1.04 1.582-.14.14-.24.32-.42.42-.4-.04-.439.34-.659.52-.2.161-.3.441-.7.501.58-1.18 1.4-2.121 2.099-3.122.1-.24.26-.42.46-.6.04-.04.1-.08.14-.12.08-.06.18-.08.28-.06.06.06.14.12.2.2z" fill="#EFEEED"/><path d="M29.276 8.407c.04.22 0 .44-.22.6-.16.12-.38.22-.56.12-.2-.12-.04-.3.02-.46.04-.12.1-.26.06-.36-.1-.36.16-.58.38-.58.36 0 .32.36.32.68z" fill="#312D2A"/><path d="M25.339 8.967c.08-.26-.08-.38-.28-.44-.36-.12-.32-.4-.26-.76.38.5.78.76 1.44.38-.18.48-.46.64-.7.84-.06.06-.14.06-.2-.02z" fill="#3C3937"/><path d="M26.538 4.944c.08.14.3.18.26.38-.3-.08-.34.34-.38.32-.24-.16-.38-.42-.28-.72.14-.08.28-.1.4.02z" fill="#5B5956"/><path d="M25.339 8.967c.06 0 .14.02.2.02-.16.24-.34.46-.6.581-.06-.02-.1-.08-.12-.14-.08-.42 0-.7.52-.46z" fill="#555251"/><path d="M24.62 9.888c-.16.24-.32.48-.58.6-.04-.04-.08-.08-.1-.12 0-.36.06-.68.54-.66.08.02.14.08.14.18z" fill="#3D3A37"/><path d="M30.055 8.167c0 .08-.02.16-.02.26-.16.08-.42.32-.3-.12.1-.32.06-.58-.18-.8-.04-.04-.06-.08-.02-.1.02-.02.04-.04.06-.04.4.12.44.46.46.8z" fill="#24201D"/><path d="M22.541 10.068c-.18-.04-.4 0-.56-.28.4.04.78.08 1.14.12-.1.38-.38.16-.58.16z" fill="#232120"/><path d="M23.22 8.867c.24-.08.44-.16.58.06.02.04-.06.22-.12.24-.18.06-.34-.04-.46-.3z" fill="#302C2A"/><path d="M22.082 11.57c.12.16.42.28.16.54-.2-.14-.72-.18-.16-.54z" fill="#B8B5B3"/><path d="M24.38 5.804l-.86-.12c.3-.18.6-.16.86.12z" fill="#41403F"/><path d="M19.903 8.066c-.08.06-.14.18-.24.22-.14.04-.22-.08-.22-.2 0-.16.14-.18.26-.16.06 0 .18-.04.2.14z" fill="#6B6967"/><path d="M22.541 10.068c.18-.1.44.1.58-.16.14.06.38.14.08.26a.67.67 0 0 1-.66-.1z" fill="#ABABAA"/><path d="M24.98 5.284c-.26.1-.42.14-.58.02-.06-.04-.08-.14.02-.18.18-.1.32.02.56.16z" fill="#8D8C8C"/><path d="M28.816 12.11v.14c-.18.2-.38.36-.8.3.34-.2.52-.4.8-.44z" fill="#211F1D"/><path d="M27.997 9.688c.06-.28.26-.3.48-.26.02 0 .06.16.04.18-.14.2-.34.16-.52.08z" fill="#322F2E"/><path d="M23.8 8.367c.02-.18.06-.34.08-.58.22.24.18.42-.08.58z" fill="#353431"/><path d="M30.754 9.288c.32.32.12.72.16 1.1-.28-.34.02-.76-.16-1.1z" fill="#24201D"/><path d="M26.858 10.529c.32.899-.5.08-.58.38.2-.12.38-.26.58-.38z" fill="#B5B2AF"/><path d="M21.182 9.728c0 .12.06.24-.06.34-.06-.1-.14-.18-.16-.28-.04-.12-.02-.24-.02-.36.24-.04.12.24.24.3z" fill="#6E6D6D"/><path d="M29.595 7.366c.02.06 0 .1-.04.14a.57.57 0 0 1-.56-.26c.26-.16.42.04.6.12z" fill="#7E7D7C"/><path d="M26.538 4.944c-.14 0-.28-.02-.4-.02 0-.1 0-.2.02-.32.14.18.46.08.58.32-.08.02-.14.02-.2.02z" fill="#EBE9E6"/><path d="M24.62 9.888c-.06-.06-.1-.12-.16-.18-.02-.14-.18-.22-.1-.38.08.06.18.1.26.16.14.12.12.26 0 .4z" fill="#25211E"/><path d="M28.236 10.648c-.08-.14-.22-.16-.36-.2.18-.14.42-.24.6-.1.1.08-.1.24-.24.3z" fill="#2C2928"/><path d="M24.64 9.867v-.4c.06-.02.12-.02.18-.04.04.04.08.08.12.14-.02.04-.02.08-.02.12-.1.06-.2.12-.28.18z" fill="#383635"/><path d="M27.997 7.586c.02.2-.12.2-.22.26-.08.04-.14 0-.14-.08-.02-.16.14-.18.22-.24 0-.02.08.04.14.06z" fill="#706F6E"/><path d="M28.077 6.586l.16.16c-.12.14-.32.36-.44.2-.2-.26.18-.24.28-.36z" fill="#575654"/><path d="M19.244 6.445c0 .1-.06.16-.18.12l-.24-.06c.06-.06.12-.14.2-.18.1-.04.2 0 .22.12z" fill="#575755"/><path d="M27.997 5.805c.16.04.34-.04.48.12-.24.2-.46.08-.7 0 .08-.04.14-.08.22-.12z" fill="#E8E5E2"/><path d="M21.942 11.35v.16c-.18.02-.3-.08-.44-.18.16-.18.3-.12.44.02z" fill="#62605F"/><path d="M21.182 9.728c-.08-.1-.16-.2-.26-.3 0-.16.1-.24.22-.16.18.12.08.3.04.46z" fill="#3B3937"/><path d="M27.457 38.792c1.399.06 2.318 1.161 2.238 2.703-.06 1.38-.899 2.262-2.098 2.221-1.439-.04-2.318-1.1-2.258-2.762.06-1.341.9-2.222 2.118-2.162z" fill="#403432"/><path d="M27.637 15.593h.16c.1-.1.2-.08.28 0 .22.2.46.36.759.42.6.12 1 .48 1.219 1.041.22.5.12 1.061.3 1.562.02.62.28 1.14.52 1.72-.46-.08-.56-.56-.84-.84-.1-.08-.18-.16-.2-.28-.1.14.02.3-.06.44-.02.04-.04.1-.06.14-.08.08-.16.1-.24 0-.3-.6-.799-.26-1.239-.3.02-.16-.06-.34.14-.46.58-.36.54-.72-.04-1.121-.4-.28-.919-.02-1.278-.38.02-.02.04-.06.04-.08.22-.2.34-.46.34-.761.02-.16-.02-.3-.08-.44-.04-.08-.06-.18-.08-.26.02-.22.18-.321.359-.401z" fill="#201B17"/><path d="M28.077 15.593h-.28c.08-.5-.16-.8-.62-.96-.02 0 .02-.18.02-.261.26-.16.42 0 .6.16.4.26.2.7.28 1.061z" fill="#241F1C"/><path d="M27.797 14.532c-.2-.06-.4-.1-.6-.16.1-.76.5-.44.88-.24.08.28-.28.1-.28.3v.1z" fill="#E4E3E2"/><path d="M29.416 14.512c-.12-.16-.24-.32-.38-.48.06-.08.14-.16.24-.18.2-.04.34.04.42.22.02.1.06.16.16.16-.02.28-.2.32-.44.28z" fill="#979594"/><path d="M27.797 14.412c-.12-.3.26-.12.28-.3.28-.14.3.2.46.24-.26.02-.5.04-.74.06z" fill="#363432"/><path d="M31.254 13.932l.16-.16c.18.14.16.34.22.58-.32-.02-.42-.16-.38-.42z" fill="#5E5D5C"/><path d="M30.455 14.212c.06.06.12.12.16.18-.04.18-.14.3-.36.38-.04-.24.08-.4.2-.56z" fill="#5F5E5D"/><path d="M13.11 39.553c.359.9.659 1.621.958 2.322.02.06.04.14.06.24H12.05c.34-.8.66-1.601 1.06-2.562z" fill="#403432"/><path d="M31.654 19.636c-.08.04-.18.1-.26.14.04-.52-.12-1.14.68-1.22.14-.02.319-.02.339.18.02.16-.12.22-.24.22-.44.04-.5.34-.52.68z" fill="#EBEAE8"/><path d="M31.554 16.033c.24 0 .48.08.44.24-.1.36-.56.3-.8.541-.08.08-.24-.06-.24-.2.04-.36.3-.52.6-.58z" fill="#EEEEEC"/><path d="M31.953 19.476c-.02.18-.04.36-.04.54-.14-.02-.16-.14-.2-.26.1-.08.08-.26.24-.28z" fill="#605F5D"/><path d="M29.715 14.072c-.16-.04-.3-.18-.48-.1-.34-.26-.12-.42.08-.6.04 0 .08-.02.1-.02.5.08.28.44.3.72z" fill="#D1CFCE"/><path d="M28.976 13.611c-.64-.14.12-.3 0-.46.1-.04.2-.1.3-.14.16-.06.3-.14.3.14-.08.04-.16.06-.14.18v-.02c-.16.12-.28.24-.46.3z" fill="#E9E7E5"/><path d="M29.575 13.17c-.06-.14-.2-.12-.3-.14.22-.2.46-.2.74-.08-.1.2-.28.2-.44.22z" fill="#C3BFBC"/><path d="M33.132 25.181c-.14.16-.28.3-.42.46-.04-.04-.08-.1-.14-.14-.06-.08.28-.28-.06-.28-.199 0-.379.1-.579.12-.799.04-1.019-.3-.779-1.1.2.68.56.94 1.04.74a.84.84 0 0 0 .499-.7c.06-.361-.18-.521-.46-.681-.56-.32-.56-.32-.66-.841.8.62 2.199.88 1.56 2.422z" fill="#282421"/><path d="M29.456 19.776h.24c.08 1.061 1.078 1.001 1.818 1.342-.3.22-.48 0-.68 0-1.319-.04-1.319-.06-1.378-1.341z" fill="#332F2C"/><path d="M31.054 22.519c-.3.02-.46-.66-.74-.04-.02.06-.359-.08-.479-.26-.14-.22.02-.38.18-.5.24-.201.52-.181.78-.06.32.18.32.5.26.86z" fill="#2D2926"/><path d="M29.176 23.92c.4-.14.819-.16 1.079-.58.14-.22.42-.1.54.14.14.22-.04.28-.2.44-.48.5-.94-.08-1.42 0z" fill="#312D2B"/><path d="M33.013 21.438c.12.14.22.28.34.42.08.2.1.34-.18.34-.44-.38-.92-.34-1.4-.02.2-.42.56-.64.96-.76.08-.02.18-.04.28.02z" fill="#292726"/><path d="M29.136 21.438c-.3-.06-.56-.1-.92-.16.4-.32.8-.58.56-1.301.34.5.34.5.36 1.46z" fill="#363330"/><path d="M29.755 19.636c-.18-.3-.2-.58.1-.9.06.28.12.5.16.74-.08.06-.16.12-.26.16z" fill="#D0CDCB"/><path d="M25.14 20.817c0-.06-.02-.1-.06-.12.339-.02.659.02.998-.02-.28.26-.62.16-.939.14z" fill="#373635"/><path d="M33.152 22.198c.16-.06.16-.2.18-.34.24.3.16.58-.1.88-.02-.2-.06-.36-.08-.54z" fill="#454342"/><path d="M33.013 21.438c-.1.02-.2.16-.28-.02.02-.14-.04-.36.08-.36.16 0 .2.22.2.38z" fill="#34302D"/><path d="M23.6 12.13c.3-.58.74-1.08 1.16-1.561.34-.3.559-.22.679.2.12.46.08.98.38 1.401.08.12.04.34-.18.3-.66-.14-.26.32-.32.52.02.181-.02.321-.14.441-.02.02-.06.04-.08.06-.4-.2-.88-.14-1.219-.44-.16-.08-.26-.24-.32-.42-.06-.16-.1-.34.04-.5z" fill="#F9F9F9"/><path d="M23.6 12.13c.04.16.1.32.14.48-.12.2-.04.38.02.581.16.32.54.3.78.48.18.14.22.36.06.5-.28.221-.26-.16-.4-.24-.08-.02-.16-.12-.24-.04-.02.02.06.12.08.18.16.261.28.581-.14.601-.3.02-.8.04-.88-.42-.1-.58-.1-1.161.26-1.682.02-.22.12-.36.32-.44z" fill="#EFEEED"/><path d="M25.799 13.531c.12.32.26.66.04 1.001.12.2.08.4 0 .62-.4.441.12.781.14 1.182-.08.14 0 .4-.3.36-.52-.88-.7-1.822-.46-2.842.02-.1-.08-.22-.12-.34h-.02c.26-.261.5-.12.72.02z" fill="#F3F2F2"/><path d="M25.679 16.674c.2-.02.18-.26.3-.36.04.06.1.12.14.18.14.5.699.64.919 1.06v-.02c-.54.12-1-.1-1.48-.28-.14.02-.06.24-.2.26-.179-.22-.02-.5-.099-.74.14-.04.28-.08.42-.1z" fill="#322D2A"/><path d="M22.681 15.513c-.08-.56-.2-1-.78-1.201.48-.28.7-.04.88.22.18.26.4.58-.1.981z" fill="#E9E7E5"/><path d="M23.28 16.374c-.06-.18-.16-.38.18-.38.24 0 .46.2.38.36-.14.24.02.7-.32.7s-.24-.4-.24-.68z" fill="#F0F0EE"/><path d="M24.04 14.071c-.18-.08-.42-.06-.56-.34.32-.14.54-.1.7.2-.04.06-.08.1-.14.14z" fill="#5C5B59"/><path d="M20.603 14.231c-.08-.08-.14-.16-.22-.24.16-.14.36.04.52-.04-.1.1-.2.18-.3.28z" fill="#63615E"/><path d="M23.74 13.191c-.2-.18-.32-.38-.02-.58.04.14.1.28.14.44a.87.87 0 0 0-.12.14z" fill="#3D3836"/><path d="M25.998 18.135h.7c0 .04.02.1.02.14-.24.04-.48.08-.72.14v-.28z" fill="#2F2C2A"/><path d="M20.923 15.733h.24v.7c-.1-.22-.3-.42-.24-.7z" fill="#52504E"/><path d="M25.339 17.514c.14-.02-.1-.36.2-.26 0 .14-.02.28-.02.42-.12.02-.16-.04-.18-.16z" fill="#201B17"/><path d="M27.957 18.335c-.24.1-.46.2-.7.32.1-.42.32-.58.7-.32z" fill="#373432"/><path d="M27.038 17.555c0-.12-.08-.18-.18-.18-.68.06-.84-.3-.74-.881.14-.1.06-.38.32-.4.16.1.36.12.54.12.3.02.48.22.659.44-.06.4.04.9-.6.9z" fill="#EDEDEC"/><path d="M25.838 15.133c-.18-.2-.14-.42 0-.62.36-.161.36-.161.64-.701.3.74-.16 1.04-.64 1.32z" fill="#D4D2D0"/><path d="M27.637 15.593c-.1.14-.2.26-.3.4-.2.18-.32.04-.46-.1.1-.32.02-.68.28-1.02.08.32.26.54.48.72z" fill="#241F1C"/><path d="M26.878 15.873c.16.04.3.08.46.1.04.06.1.12.14.2-.14.24-.42-.02-.6.16-.28.14-.44.08-.46-.26.16-.06.32-.12.46-.2z" fill="#CAC8C6"/><path d="M25.799 13.531c-.24-.02-.48-.02-.72-.04-.02-.22.12-.36.24-.5.1.24.44.26.48.54z" fill="#6A6969"/><path d="M28.976 13.611c.12-.16.24-.3.46-.3 0 .24-.64.28-.2.66-.06.02-.12.04-.2.06l-.06-.42z" fill="#2A2827"/><path d="M26.878 16.334c.14-.26.42-.02.6-.16.06.16.219.28.139.48-.24-.1-.48-.2-.74-.32z" fill="#696867"/></svg>